<svg xmlns="http://www.w3.org/2000/svg" id="Layer_1" width="140" height="140" x="0" y="0" version="1.1" viewBox="0 0 140 140" xml:space="preserve"><path fill="#08bc26" d="M33.944 43.831v55.15c0 4.38 3.654 7.944 8.161 7.944h5.884a7.116 7.116 0 0 0-.309 2.087v15.878c0 4.15 3.462 7.517 7.728 7.517s7.728-3.367 7.728-7.517v-15.878c0-.731-.112-1.423-.31-2.087h14.35a7.354 7.354 0 0 0-.304 2.087v15.878c0 4.15 3.458 7.517 7.723 7.517 4.272 0 7.739-3.367 7.739-7.517v-15.878c0-.731-.12-1.423-.321-2.087h5.893c4.505 0 8.152-3.563 8.152-7.944v-55.15H33.944z"/><path fill="#49e500" d="M33.944 43.831v25.716h72.114V43.831h-71.56z"/><path fill="#08bc26" d="M21.062 43.831c-4.27 0-7.729 3.365-7.729 7.516v32.176c0 4.15 3.46 7.517 7.729 7.517 4.265 0 7.729-3.367 7.729-7.517V51.347c0-4.151-3.464-7.516-7.729-7.516z"/><path fill="#49e500" d="M13.333 51.347v18.2h15.458v-18.2c0-4.15-3.464-7.516-7.729-7.516-4.269 0-7.729 3.365-7.729 7.516zM105.907 38.819c-1.36-13.495-12.3-24.564-26.795-27.888a44.421 44.421 0 00-18.231.003C46.39 14.261 35.454 25.327 34.095 38.819h71.812zm-20.45-14.947c2.134 0 3.864 1.675 3.864 3.754 0 2.08-1.73 3.763-3.864 3.763-2.137 0-3.866-1.684-3.866-3.763 0-2.079 1.729-3.754 3.866-3.754zm-30.908 0c2.134 0 3.864 1.675 3.864 3.754 0 2.08-1.73 3.763-3.864 3.763-2.14 0-3.865-1.684-3.865-3.763 0-2.079 1.725-3.754 3.865-3.754z"/><path fill="#08bc26" d="M118.945 43.831c-4.273 0-7.729 3.365-7.729 7.516v32.176c0 4.15 3.456 7.517 7.729 7.517 4.266 0 7.723-3.367 7.723-7.517V51.347c0-4.151-3.457-7.516-7.723-7.516z"/><path fill="#49e500" d="M118.945 43.831c-4.273 0-7.729 3.365-7.729 7.516v18.2h15.452v-18.2c0-4.151-3.457-7.516-7.723-7.516z"/><path fill="none" stroke="#33363a" stroke-linecap="round" stroke-linejoin="round" stroke-miterlimit="10" stroke-width="3" d="M33.944 43.831v55.15c0 4.38 3.654 7.944 8.161 7.944h5.884a7.116 7.116 0 00-.309 2.087v15.878c0 4.15 3.462 7.517 7.728 7.517s7.728-3.367 7.728-7.517v-15.878c0-.731-.112-1.423-.31-2.087h14.35a7.354 7.354 0 00-.304 2.087v15.878c0 4.15 3.458 7.517 7.723 7.517 4.272 0 7.739-3.367 7.739-7.517v-15.878c0-.731-.12-1.423-.321-2.087h5.893c4.505 0 8.152-3.563 8.152-7.944v-55.15H33.944zM21.062 43.831c-4.27 0-7.729 3.365-7.729 7.516v32.176c0 4.15 3.46 7.517 7.729 7.517 4.265 0 7.729-3.367 7.729-7.517V51.347c0-4.151-3.464-7.516-7.729-7.516zM105.907 38.819c-1.36-13.495-12.3-24.564-26.795-27.888a44.421 44.421 0 00-18.231.003C46.39 14.261 35.454 25.327 34.095 38.819h71.812zm-20.45-14.947c2.134 0 3.864 1.675 3.864 3.754 0 2.08-1.73 3.763-3.864 3.763-2.137 0-3.866-1.684-3.866-3.763 0-2.079 1.729-3.754 3.866-3.754zm-30.908 0c2.134 0 3.864 1.675 3.864 3.754 0 2.08-1.73 3.763-3.864 3.763-2.14 0-3.865-1.684-3.865-3.763 0-2.079 1.725-3.754 3.865-3.754zM118.945 43.831c-4.273 0-7.729 3.365-7.729 7.516v32.176c0 4.15 3.456 7.517 7.729 7.517 4.266 0 7.723-3.367 7.723-7.517V51.347c0-4.151-3.457-7.516-7.723-7.516zM45.534 7.593l3.479 8.025M94.466 7.593l-3.477 8.025"/><g><path fill="none" stroke="#33363a" stroke-linecap="round" stroke-linejoin="round" stroke-miterlimit="10" stroke-width="3" d="M26.604 114.812l-1.323 1.323M22.407 119.008l.062-.06M38.955 122.943v1.869M38.956 128.879l-.001-.087M18.474 102.459h-1.872M12.536 102.459h.087"/><g><path fill="none" stroke="#33363a" stroke-linecap="round" stroke-linejoin="round" stroke-miterlimit="10" stroke-width="3" d="M113.396 114.626l1.324 1.323M117.593 118.824l-.061-.063M121.527 102.275h1.869M127.464 102.274h-.088M101.044 122.756v1.873M101.044 128.694v-.088"/></g></g><g><path fill="none" stroke="#33363a" stroke-linecap="round" stroke-linejoin="round" stroke-miterlimit="10" stroke-width="3" d="M56.352 61.481h3M68.5 61.481h3M80.648 61.481h3"/></g><path fill="none" stroke="#33363a" stroke-linecap="round" stroke-linejoin="round" stroke-miterlimit="10" stroke-width="3" d="M57.848 106.925h24.304"/></svg>