<svg xmlns="http://www.w3.org/2000/svg" data-name="Layer 1" viewBox="0 0 64 64"><rect width="22" height="18" x="2" y="9" fill="#b6ccfe"/><path fill="#9bf6ff" d="M20,9h4a0,0,0,0,1,0,0V27a0,0,0,0,1,0,0H2a0,0,0,0,1,0,0v0A18,18,0,0,1,20,9Z"/><polygon fill="#c1d3fe" points="24 52 2 49 2 31 24 31 24 52"/><path fill="#9bf6ff" d="M24,52,2,49V31H3A21,21,0,0,1,24,52Z"/><polygon fill="#b6ccfe" points="62 33 28 27 28 9 62 2 62 33"/><path fill="#9bf6ff" d="M62,33,45.73,30.13A21.45,21.45,0,0,1,28,9h0L62,2Z"/><polygon fill="#abc4ff" points="62 62 28 52 28 31 62 37 62 62"/><path fill="#9bf6ff" d="M62,62,28,52V31l9.38,1.66A29.79,29.79,0,0,1,62,62Z"/></svg>